<svg id="CMYK" xmlns="http://www.w3.org/2000/svg" viewBox="0 0 777.38 117"><defs><style>.cls-1{fill:#fff;}.cls-2{fill:#5da33a;}</style></defs><title>Picarro_Logo_white</title><path class="cls-1" d="M35.32,303H21.76v47H5.62V237.8H37.09c26.31,0,37.44,5.48,37.44,30.82C74.53,293.31,62.59,303,35.32,303Zm1.12-52.77H21.76v40.35H36c15.65,0,22.59-6.14,22.59-21.3C58.55,253.77,52.58,250.22,36.44,250.22Z" transform="translate(-5.62 -235.38)"/><path class="cls-1" d="M125.37,350V237.8H141.5V350Z" transform="translate(-5.62 -235.38)"/><path class="cls-1" d="M264.8,336.08l1.94,12.42c-7.75,1.94-17.11,3.71-26,3.71-29.53,0-43.25-10-43.25-57.93,0-47.77,16-58.74,44.55-58.74a91.27,91.27,0,0,1,24.69,3.39l-1.94,12.42a80.72,80.72,0,0,0-21.63-3.06c-19.68,0-29.53,6.45-29.53,45.34,0,39.38,9.2,45.84,29.53,45.84C250.11,339.47,257.7,338,264.8,336.08Z" transform="translate(-5.62 -235.38)"/><path class="cls-1" d="M352.11,248.29H352C349,258.61,321.61,350,321.61,350h-16L340.81,237.8h23.56L399.72,350H382.93S355.17,258.45,352.11,248.29Z" transform="translate(-5.62 -235.38)"/><path class="cls-1" d="M504,350l-29.86-51.64h-9.84V350H448.13V237.8h32.44c28.72,0,38.89,6.13,38.89,28.56,0,18.4-8.23,27.6-28.72,30L522.85,350Zm-23.88-99.74H464.27v35.67h15.82c18.23,0,23.23-5.81,23.23-18.88C503.32,253.61,497.84,250.22,480.09,250.22Z" transform="translate(-5.62 -235.38)"/><path class="cls-1" d="M629.37,350l-29.86-51.64h-9.85V350H573.53V237.8H606c28.73,0,38.9,6.13,38.9,28.56,0,18.4-8.23,27.6-28.73,30L648.25,350Zm-23.89-99.74H589.66v35.67h15.82c18.24,0,23.24-5.81,23.24-18.88C628.72,253.61,623.23,250.22,605.48,250.22Z" transform="translate(-5.62 -235.38)"/><path class="cls-1" d="M738.3,352.37c-28.89,0-43.41-9.67-43.41-57.93s15.65-59.06,44.54-59.06c29.05,0,43.57,9.84,43.57,58.09S767.18,352.37,738.3,352.37Zm.64-104.25c-18.88,0-27.92,6.94-27.92,45.68s9,45.83,27.92,45.83c18.72,0,27.92-6.94,27.92-45.51C766.86,255.39,757.66,248.12,738.94,248.12Z" transform="translate(-5.62 -235.38)"/><polygon class="cls-2" points="361.71 101.1 331.79 101.1 328.02 114.07 365.48 114.07 361.71 101.1"/></svg>