<svg id="Dark_Theme" data-name="Dark Theme" xmlns="http://www.w3.org/2000/svg" viewBox="0 0 61.29 62.19"><defs><style>.cls-1,.cls-2{fill:none;stroke:#52545c;}.cls-1{stroke-linecap:round;stroke-linejoin:round;stroke-width:2.7px;}.cls-2{stroke-width:3.7px;}</style></defs><title>analyzer-light</title><g id="Plot_and_Analyzer_Graph-_LIGHT" data-name="Plot and Analyzer Graph- LIGHT"><path id="Analyzer_Graph" data-name="Analyzer Graph" class="cls-1" d="M11.73,53.19s-.64-7.94,4.87-8.68l5.08-1.27s-.1-4.66,0-7.63c.11-4.65-.63-9.74,5.19-10.59,4.88-.52-.84.11,4.24-.52,0,0,0,2,.11,10.48.1,4.45.42,7.41,3.91,7.41h5.09V23.75c0-7.09-.64-13.76,5.08-14.5l4.45-.64V41.23c0,11.33,0,11.33,7.31,11.33" transform="translate(-0.68 -1.6)"/><polygon class="cls-2" points="4.1 4.6 3.16 4.6 3.63 3.77 4.1 4.6"/><line class="cls-2" x1="3.68" y1="3.98" x2="3.68" y2="60.09"/><line class="cls-2" x1="57.82" y1="58.53" x2="1.88" y2="58.25"/><polygon class="cls-2" points="56.88 58.98 56.88 58.15 57.59 58.57 56.88 58.98"/></g></svg>