<svg id="Dark_Theme" data-name="Dark Theme" xmlns="http://www.w3.org/2000/svg" viewBox="0 0 61.29 62.19"><defs><style>.cls-1,.cls-2{fill:none;stroke:#52545c;}.cls-1{stroke-linecap:round;stroke-linejoin:round;stroke-width:3.2px;}.cls-2{stroke-width:3.7px;}</style></defs><title>plot -light</title><g id="Plot_and_Analyzer_Graph-_LIGHT" data-name="Plot and Analyzer Graph- LIGHT"><g id="Graphs_by_Ports" data-name="Graphs by Ports"><circle class="cls-1" cx="38.23" cy="25.56" r="1.14"/><circle class="cls-1" cx="30.13" cy="28.15" r="1.14"/><circle class="cls-1" cx="36.57" cy="35" r="1.14"/><circle class="cls-1" cx="15.2" cy="48.28" r="1.14"/><circle class="cls-1" cx="43.52" cy="31.47" r="1.14"/><circle class="cls-1" cx="35.53" cy="22.34" r="1.14"/><circle class="cls-1" cx="45.49" cy="22.34" r="1.14"/><circle class="cls-1" cx="25.05" cy="19.44" r="1.14"/><circle class="cls-1" cx="49.32" cy="10.52" r="1.14"/><circle class="cls-1" cx="42.37" cy="15.91" r="1.14"/><circle class="cls-1" cx="53.99" cy="20.47" r="1.14"/><circle class="cls-1" cx="51.09" cy="26.59" r="1.14"/><circle class="cls-1" cx="44.35" cy="42.36" r="1.14"/><circle class="cls-1" cx="19.24" cy="35.31" r="1.14"/><circle class="cls-1" cx="28.27" cy="35.31" r="1.14"/><circle class="cls-1" cx="30.13" cy="42.36" r="1.14"/><circle class="cls-1" cx="35.53" cy="15.91" r="1.14"/></g><polygon class="cls-2" points="4.1 4.6 3.16 4.6 3.63 3.77 4.1 4.6"/><line class="cls-2" x1="3.68" y1="3.98" x2="3.68" y2="60.09"/><line class="cls-2" x1="57.82" y1="58.53" x2="1.88" y2="58.25"/><polygon class="cls-2" points="56.88 58.98 56.88 58.15 57.59 58.57 56.88 58.98"/></g></svg>