<svg id="darrk_and_light_theme" data-name="darrk and light theme" xmlns="http://www.w3.org/2000/svg" viewBox="0 0 63.48 54.95"><defs><style>.cls-1{fill:#fff;}.cls-2{fill:none;stroke:#52545c;stroke-miterlimit:10;}.cls-3{fill:#52545c;}</style></defs><title>table light</title><g id="table_-_light" data-name="table - light"><path class="cls-1" d="M57.31,55.64" transform="translate(-0.23 -4.3)"/><path class="cls-1" d="M53.9,55.64" transform="translate(-0.23 -4.3)"/><rect class="cls-2" x="0.5" y="18.04" width="51.42" height="36.4"/><rect class="cls-2" x="0.5" y="36.86" width="51.42" height="8.89"/><rect class="cls-2" x="0.5" y="17.85" width="51.42" height="9.98"/><rect class="cls-2" x="13.54" y="18.04" width="12.68" height="36.4"/><rect class="cls-2" x="39.05" y="17.85" width="12.88" height="36.6"/><line class="cls-2" x1="18.31" y1="23.3" x2="21.72" y2="23.3"/><line class="cls-2" x1="18.31" y1="41.36" x2="21.72" y2="41.36"/><line class="cls-2" x1="30.9" y1="41.42" x2="34.31" y2="41.42"/><line class="cls-2" x1="43.78" y1="41.42" x2="47.19" y2="41.42"/><line class="cls-2" x1="5.33" y1="32.62" x2="8.74" y2="32.62"/><line class="cls-2" x1="18.24" y1="32.62" x2="21.65" y2="32.62"/><line class="cls-2" x1="30.76" y1="32.54" x2="34.17" y2="32.54"/><line class="cls-2" x1="43.71" y1="32.62" x2="47.12" y2="32.62"/><line class="cls-2" x1="43.78" y1="23.3" x2="47.19" y2="23.3"/><line class="cls-2" x1="30.9" y1="23.3" x2="34.31" y2="23.3"/><line class="cls-2" x1="5.33" y1="23.3" x2="8.74" y2="23.3"/><line class="cls-2" x1="5.33" y1="41.5" x2="8.74" y2="41.5"/><line class="cls-2" x1="18.2" y1="50.18" x2="21.61" y2="50.18"/><line class="cls-2" x1="30.79" y1="50.39" x2="34.2" y2="50.39"/><line class="cls-2" x1="43.67" y1="50.25" x2="47.08" y2="50.25"/><line class="cls-2" x1="5.22" y1="50.33" x2="8.63" y2="50.33"/><line class="cls-2" x1="54.82" y1="31.65" x2="58.23" y2="31.65"/><line class="cls-2" x1="54.75" y1="22.99" x2="58.16" y2="22.99"/><line class="cls-2" x1="54.82" y1="13.67" x2="58.23" y2="13.67"/><line class="cls-2" x1="54.71" y1="40.33" x2="58.12" y2="40.33"/><polygon class="cls-2" points="62.97 44.24 62.98 44.24 62.98 9.47 62.97 7.02 62.97 44.24"/><line class="cls-2" x1="54.24" y1="18.34" x2="62.98" y2="18.34"/><line class="cls-2" x1="54.24" y1="27.23" x2="62.98" y2="27.23"/><line class="cls-2" x1="54.24" y1="36.12" x2="62.97" y2="36.12"/><line class="cls-2" x1="54.24" y1="44.24" x2="63.02" y2="44.24"/><path class="cls-3" d="M.73,16.49v5.73s0,0,0,0H52.12a0,0,0,0,0,0,0V16.15a1.9,1.9,0,0,0-1.9-1.9H3A2.24,2.24,0,0,0,.73,16.49ZM9.8,19.41a0,0,0,0,1,0,0H4.69s0-1.09,0-2.39h0s0,0,0,0H9.76a0,0,0,0,1,0,0Zm13,0s0,0,0,0H17.72s0,0,0,0V17a0,0,0,0,1,0,0h5.05a0,0,0,0,1,0,0Zm12.73,0a0,0,0,0,1,0,0h-5s0,0,0,0V17a0,0,0,0,1,0,0h5s0,0,0,0Zm12.74,0s0,0,0,0H43.19s0,0,0,0V17a0,0,0,0,1,0,0h5.05a0,0,0,0,1,0,0Z" transform="translate(-0.23 -4.3)"/><path class="cls-2" d="M.73,16.49v5.73s0,0,0,0H52.12a0,0,0,0,0,0,0V16.15a1.9,1.9,0,0,0-1.9-1.9H3A2.24,2.24,0,0,0,.73,16.49ZM9.8,19.41a0,0,0,0,1,0,0H4.69s0-1.09,0-2.39h0s0,0,0,0H9.76a0,0,0,0,1,0,0Zm13,0s0,0,0,0H17.72s0,0,0,0V17a0,0,0,0,1,0,0h5.05a0,0,0,0,1,0,0Zm12.73,0a0,0,0,0,1,0,0h-5s0,0,0,0V17a0,0,0,0,1,0,0h5s0,0,0,0Zm12.74,0s0,0,0,0H43.19s0,0,0,0V17a0,0,0,0,1,0,0h5.05a0,0,0,0,1,0,0Z" transform="translate(-0.23 -4.3)"/><path class="cls-3" d="M61.21,4.8H14.1a2.33,2.33,0,0,0-2.33,2.33v3.59H51.53a3.68,3.68,0,0,1,3.41,2.08h8.13a.12.12,0,0,0,.13-.12V6.79A2,2,0,0,0,61.21,4.8ZM20.84,9.87a.12.12,0,0,1-.12.13h-5s0-1.05,0-2.31h0a.12.12,0,0,1,.12-.12h4.88a.12.12,0,0,1,.12.12Zm13,0a.12.12,0,0,1-.12.12H28.85a.12.12,0,0,1-.12-.12V7.64a.12.12,0,0,1,.12-.12h4.88a.13.13,0,0,1,.12.12Zm12.73,0a.12.12,0,0,1-.12.12H41.58a.12.12,0,0,1-.12-.12V7.64a.13.13,0,0,1,.12-.12h4.88a.12.12,0,0,1,.12.12Zm12.74,0a.12.12,0,0,1-.12.12H54.32a.12.12,0,0,1-.12-.12V7.64a.12.12,0,0,1,.12-.12H59.2a.13.13,0,0,1,.12.12Z" transform="translate(-0.23 -4.3)"/><path class="cls-2" d="M61.21,4.8H14.1a2.33,2.33,0,0,0-2.33,2.33v3.59H51.53a3.68,3.68,0,0,1,3.41,2.08h8.13a.12.12,0,0,0,.13-.12V6.79A2,2,0,0,0,61.21,4.8ZM20.84,9.87a.12.12,0,0,1-.12.13h-5s0-1.05,0-2.31h0a.12.12,0,0,1,.12-.12h4.88a.12.12,0,0,1,.12.12Zm13,0a.12.12,0,0,1-.12.12H28.85a.12.12,0,0,1-.12-.12V7.64a.12.12,0,0,1,.12-.12h4.88a.13.13,0,0,1,.12.12Zm12.73,0a.12.12,0,0,1-.12.12H41.58a.12.12,0,0,1-.12-.12V7.64a.13.13,0,0,1,.12-.12h4.88a.12.12,0,0,1,.12.12Zm12.74,0a.12.12,0,0,1-.12.12H54.32a.12.12,0,0,1-.12-.12V7.64a.12.12,0,0,1,.12-.12H59.2a.13.13,0,0,1,.12.12Z" transform="translate(-0.23 -4.3)"/></g></svg>