<svg id="Layer_1" data-name="Layer 1" xmlns="http://www.w3.org/2000/svg" viewBox="0 0 62.82 58.99"><defs><style>.cls-1{fill:#e3e3e3;}.cls-2{fill:none;}</style></defs><title>diagnostic_icon_dark theme</title><g id="DARK_THEME" data-name="DARK THEME"><g id="_Diagnostic_heart_" data-name="&quot;Diagnostic&quot; (heart)"><path class="cls-1" d="M43.78,44.42a.94.94,0,0,1-.89.68H42.8a.84.84,0,0,1-.79-.78l-3.92-24L34,44.32a.85.85,0,0,1-.88.78.93.93,0,0,1-.88-.68L27.58,25.87,24.64,37.15a.94.94,0,0,1-.88.69H8.93L30.53,61.2a2,2,0,0,0,1.57.69,2.32,2.32,0,0,0,1.57-.69l24-26a14,14,0,0,0,2.16-2.55H47.7Z" transform="translate(-0.59 -2.9)"/><path class="cls-1" d="M26.7,21.84a1,1,0,0,1,.88-.69h0a1,1,0,0,1,.89.69L32.88,39.7,37.3,14.58a.94.94,0,0,1,.88-.79h0a.94.94,0,0,1,.89.79l4.12,25.71,3-9a.94.94,0,0,1,.89-.68H61.05a19.54,19.54,0,0,0,2.36-9.33c0-10.11-7.56-18.35-17-18.35A16.83,16.83,0,0,0,32,11.73,16.53,16.53,0,0,0,17.57,3c-9.42,0-17,8.14-17,18.25A19.25,19.25,0,0,0,6.38,35.09l.69.69h16Z" transform="translate(-0.59 -2.9)"/><path class="cls-2" d="M47,30.67a1.06,1.06,0,0,0-.89.69l-3,9L39,14.68a.94.94,0,0,0-.88-.79h0a.94.94,0,0,0-.89.79L32.79,39.8,28.37,21.94a1,1,0,0,0-.88-.69h0a1,1,0,0,0-.89.69L23,36H7.07l1.77,2H23.76a1,1,0,0,0,.88-.69L27.58,26,32.2,44.51c.09.4.49.79.88.69a1,1,0,0,0,.88-.78l4.22-24.15,3.93,24.05c.1.39.39.78.78.78H43a1,1,0,0,0,.89-.68L47.8,32.64H59.88a13.27,13.27,0,0,0,1.27-2Z" transform="translate(-0.59 -2.9)"/></g></g></svg>