<svg id="darrk_and_light_theme" data-name="darrk and light theme" xmlns="http://www.w3.org/2000/svg" viewBox="0 0 61.29 62.51"><defs><style>.cls-1,.cls-4{fill:none;}.cls-1,.cls-2,.cls-3,.cls-4{stroke:#e3e3e3;stroke-miterlimit:10;}.cls-1{stroke-width:3px;}.cls-2{fill:#e3e3e3;}.cls-3{fill:#52545c;}.cls-4{stroke-width:2.5px;}</style></defs><title>File icon_dark theme</title><g id="downloaded_file_icon_-_dark" data-name="downloaded file icon - dark"><path class="cls-1" d="M46.64,32.56V5A2.76,2.76,0,0,0,43.9,2.24H13.34c-.35.28-10.48,10-10.48,10v45C2.86,57.78,4.09,59,5.6,59H38.21a14.61,14.61,0,0,1,8.43-26.46Z" transform="translate(-1.36 -0.74)"/><ellipse class="cls-1" cx="45.28" cy="46.42" rx="14.5" ry="14.6"/><path class="cls-1" d="M15.13,13.38h0Z" transform="translate(-1.36 -0.74)"/><line class="cls-1" x1="12.38" y1="1.5" x2="12.38" y2="14.12"/><rect class="cls-2" x="10.36" y="16.87" width="27.75" height="1.54" rx="0.51"/><rect class="cls-2" x="10.36" y="26.12" width="27.75" height="1.54" rx="0.51"/><path class="cls-2" d="M35.64,35.55H12.23a.51.51,0,0,0-.51.51v.52a.51.51,0,0,0,.51.51H34.7A5,5,0,0,1,35.64,35.55Z" transform="translate(-1.36 -0.74)"/><path class="cls-2" d="M32.51,44.8H12.23a.51.51,0,0,0-.51.51v.52a.51.51,0,0,0,.51.51H32.41A5.66,5.66,0,0,1,32.51,44.8Z" transform="translate(-1.36 -0.74)"/><rect class="cls-2" x="40.53" y="43.8" width="12.22" height="1.54" rx="0.51" transform="translate(89.85 -2.82) rotate(90)"/><rect class="cls-2" x="39.98" y="53.71" width="13.31" height="1.54" rx="0.51" transform="translate(91.93 108.21) rotate(180)"/><path class="cls-3" d="M41.12,46.69" transform="translate(-1.36 -0.74)"/><polyline class="cls-4" points="38.97 45.41 45.28 49.89 51.38 45.41"/></g></svg>